# xmcd
#
# Track frame offsets:
#	150
#	43927
#	80847
#	113800
#	170855
#	232890
#	301402
#
# Disc length: 4452 seconds
#
# Revision: 1
# Processed by: cddbd v1.5.1PL0 Copyright (c) Steve Scherf et al.
# Submitted via: EasyCDDAExtractor 6.0.0.1
#
DISCID=5a116207
DTITLE=Jansons, Mariss/Oslo Philharmonic Orchestra - Dvorak - Symphony No. 5 i
DTITLE=n F major (first published as No. 3), B. 54 (Op. 76) - Othello - Scherzo 
DTITLE=capriccioso
DYEAR=1900
DGENRE=Classical Symphony
TTITLE0=Symphony No. 5 - I. Allegro, Ma Non Troppo
TTITLE1=Symphony No. 5 - II. Andante Con Moto
TTITLE2=Symphony No. 5 - III. Andante Con Moto, Quasi L'istesso Tempo - Allegr
TTITLE2=o Scherzando
TTITLE3=Symphony No. 5 - IV. Finale (Allegro Molto)
TTITLE4=Overture: Othello Op.93
TTITLE5=Scherzo Capriccioso Op.66
TTITLE6=Spurious
EXTD=
EXTT0=
EXTT1=
EXTT2=
EXTT3=
EXTT4=
EXTT5=
EXTT6=
PLAYORDER=
